<svg xmlns="http://www.w3.org/2000/svg" width="14" height="14" viewBox="0 0 14 14">
  <path id="circle-x" d="M7,0a7,7,0,1,0,7,7A7,7,0,0,0,7,0ZM7,13.125A6.125,6.125,0,1,1,13.125,7,6.133,6.133,0,0,1,7,13.125ZM9.91,3.6a.438.438,0,0,0-.617.048L7,6.327,4.707,3.652A.442.442,0,0,0,4.091,3.6a.437.437,0,0,0-.047.617L6.423,7,4.042,9.778a.437.437,0,0,0,.047.617.431.431,0,0,0,.286.105.436.436,0,0,0,.332-.153L7,7.673l2.293,2.675a.438.438,0,0,0,.664-.57L7.577,7,9.958,4.222A.44.44,0,0,0,9.91,3.6Z" fill="#7e7e7e"/>
</svg>
