<svg xmlns="http://www.w3.org/2000/svg" xmlns:xlink="http://www.w3.org/1999/xlink" width="15" height="10" viewBox="0 0 15 10">
    <defs>
        <clipPath id="clip-path">
            <rect id="Rectangle_3067" data-name="Rectangle 3067" width="15" height="10" transform="translate(78 19)" fill="#c5c5c5"></rect>
        </clipPath>
    </defs>
    <g id="Component_46_14" data-name="Component 46 – 14" transform="translate(15 10) rotate(180)">
        <g id="Mask_Group_6230" data-name="Mask Group 6230" transform="translate(-78 -19)" clip-path="url(#clip-path)">
            <g id="right-arrow_1_" data-name="right-arrow (1)" transform="translate(74 14.875)">
                <g id="Group_6357" data-name="Group 6357" transform="translate(4 4.125)">
                    <path id="Path_7458" data-name="Path 7458" d="M18.776,8.554h0l-4-4.194a.738.738,0,0,0-1.082,0,.837.837,0,0,0,0,1.14l2.685,2.815H4.765a.808.808,0,0,0,0,1.613H16.381L13.7,12.747a.837.837,0,0,0,0,1.14.738.738,0,0,0,1.082,0l4-4.194h0A.838.838,0,0,0,18.776,8.554Z" transform="translate(-4 -4.125)" fill="#c5c5c5"></path>
                </g>
            </g>
        </g>
    </g>
</svg>