<?xml version="1.0" standalone="no"?>
<!DOCTYPE svg PUBLIC "-//W3C//DTD SVG 20010904//EN"
 "http://www.w3.org/TR/2001/REC-SVG-20010904/DTD/svg10.dtd">
<svg version="1.0" xmlns="http://www.w3.org/2000/svg"
 width="63.000000pt" height="42.000000pt" viewBox="0 0 63.000000 42.000000"
 preserveAspectRatio="xMidYMid meet">

<g transform="translate(0.000000,42.000000) scale(0.100000,-0.100000)"
fill="#000000" stroke="none">
<path d="M94 323 c-51 -54 -93 -105 -93 -113 0 -25 185 -212 206 -208 38 7 27
46 -31 106 -31 33 -56 62 -56 65 0 4 112 7 249 7 157 0 252 4 256 10 3 6 3 19
0 30 -6 19 -16 20 -256 20 -137 0 -249 3 -249 7 0 3 25 32 55 64 55 58 68 92
39 103 -9 3 -18 6 -21 6 -4 0 -48 -44 -99 -97z"/>
</g>
</svg>
