<?xml version="1.0" standalone="no"?>
<!DOCTYPE svg PUBLIC "-//W3C//DTD SVG 20010904//EN"
 "http://www.w3.org/TR/2001/REC-SVG-20010904/DTD/svg10.dtd">
<svg version="1.0" xmlns="http://www.w3.org/2000/svg"
 width="600.000000pt" height="445.000000pt" viewBox="0 0 600.000000 445.000000"
 preserveAspectRatio="xMidYMid meet">

<g transform="translate(0.000000,445.000000) scale(0.100000,-0.100000)"
fill="#000000" stroke="none">
<path d="M4145 4433 c-269 -2 -1190 -7 -2045 -11 l-1555 -8 -70 -23 c-118 -39
-184 -79 -275 -171 -63 -63 -96 -106 -128 -167 -24 -46 -50 -90 -58 -98 -14
-13 38 -15 465 -15 l481 0 2 -1386 3 -1387 370 -209 c204 -116 649 -368 990
-560 341 -193 633 -360 648 -371 25 -17 30 -17 45 -5 9 8 42 29 72 45 30 17
477 270 993 562 516 292 942 531 947 531 6 0 10 509 10 1390 l0 1390 464 0
c432 0 511 3 489 19 -4 3 -35 50 -67 104 -119 198 -242 296 -446 353 -72 20
-332 23 -1335 17z"/>
</g>
</svg>
