<?xml version="1.0" encoding="UTF-8"?>
<svg xmlns="http://www.w3.org/2000/svg" version="1.1" viewBox="0 0 579 428">
  <defs>
    <style>
      .cls-1 {
        fill: #e72325;
      }
    </style>
  </defs>
  <!-- Generator: Adobe Illustrator 28.7.1, SVG Export Plug-In . SVG Version: 1.2.0 Build 142)  -->
  <g>
    <g id="Layer_1">
      <path class="cls-1" d="M577.6,45.4l-3.3-7.3C563.8,15,540.6,0,515.2,0h-.2L64,1.2C36.1,1.3,11.5,19.1,2.6,45.6c-.1.4,0,.9.2,1.3.3.4.7.6,1.2.6h88.4v268.1s0,0,0,0c0,.2,0,.3.1.5,0,0,0,0,0,0,0,.1.2.3.3.4,0,0,0,0,.1.1,0,0,.1.1.2.2l196,111c.2.1.5.2.7.2s.5,0,.7-.2l195.7-110.8h.3c.8,0,1.4-.6,1.4-1.4V47.5h88.1c.5,0,.9-.2,1.2-.7.3-.4.3-.9.1-1.4Z"/>
      <path d="M578.8,46.4l-.7-1.7c-7.7-17.6-25-29-44.1-29s-33.5,9.5-42,24.8l-3.3,5.9c-.1.2-.1.5,0,.7.1.2.4.4.6.4h88.9c.2,0,.5-.1.6-.3.1-.2.2-.5,0-.7h0Z"/>
      <path d="M91.1,45.3c-7.7-17.6-25.2-29-44.5-29S12.8,25.8,4.2,41.1l-3.3,5.9c-.1.2-.1.5,0,.7.1.2.4.4.6.4h89.6c.2,0,.5-.1.6-.3.1-.2.2-.5,0-.7l-.7-1.7h0Z"/>
    </g>
  </g>
</svg>