<?xml version="1.0" encoding="UTF-8"?>
<svg version="1.1" xmlns="http://www.w3.org/2000/svg" width="560" height="500">
<path d="M0 0 C46.48924425 -0.06850514 92.97849268 -0.13218347 139.46777344 -0.16937256 C140.15633592 -0.16992479 140.8448984 -0.17047702 141.55432642 -0.17104598 C156.52030604 -0.1830189 171.48628621 -0.19409944 186.45226717 -0.20426132 C193.79207146 -0.20925046 201.13187561 -0.21443671 208.47167969 -0.21972656 C209.56725085 -0.22051112 209.56725085 -0.22051112 210.68495476 -0.22131152 C234.33902542 -0.23834286 257.99305774 -0.26837758 281.64710519 -0.30518888 C305.96408403 -0.34296294 330.28104167 -0.3675519 354.59804935 -0.37565996 C358.03629321 -0.3768125 361.47453699 -0.37811505 364.91278076 -0.37950897 C365.92777821 -0.37991351 365.92777821 -0.37991351 366.96328066 -0.38032622 C377.8354799 -0.3850446 388.70761339 -0.40357385 399.57978587 -0.42732814 C410.5222637 -0.45093911 421.46467359 -0.4595337 432.40717566 -0.45400551 C438.33111278 -0.45144711 444.2548577 -0.45533044 450.17876053 -0.4768219 C455.61007393 -0.49638171 461.04106707 -0.49720896 466.47239566 -0.48359558 C468.42960522 -0.4819147 470.3868353 -0.48690847 472.34400487 -0.49953273 C495.50814274 -0.64016993 513.9309222 4.62727515 531.11328125 21.015625 C542.93202506 33.40809424 550.12811139 50.08672966 550.12304783 67.23700428 C550.12420167 67.95864394 550.12535552 68.68028361 550.12654433 69.42379114 C550.12919697 71.84853465 550.12469994 74.27321214 550.12025452 76.69795227 C550.12069049 78.45118306 550.12156589 80.20441379 550.12284368 81.95764416 C550.12508342 86.78062301 550.12107444 91.60357972 550.11606562 96.42655575 C550.11175387 101.62556211 550.11320806 106.82456719 550.1139679 112.02357483 C550.11449267 121.03296009 550.11135072 130.04233813 550.10573006 139.05172157 C550.09760877 152.0778361 550.09499919 165.10394713 550.09374207 178.13006391 C550.09155254 199.26322493 550.08489513 220.39638209 550.07543945 241.52954102 C550.06626278 262.0604653 550.05918319 282.59138853 550.05493164 303.12231445 C550.05466892 304.38748696 550.05440619 305.65265947 550.05413551 306.95617054 C550.05283049 313.30306357 550.05156678 319.64995661 550.05032361 325.99684966 C550.03995408 378.6645691 550.02233845 431.33228436 550 484 C546.36598423 482.28877436 543.87362897 480.20066113 540.9375 477.4375 C537.28859927 474.0431595 533.58418125 470.80023354 529.6875 467.6875 C524.63083286 463.61186956 519.91651697 459.2463704 515.19213867 454.79760742 C511.72955888 451.55466358 508.20722279 448.46577823 504.5 445.5 C499.4956568 441.49652544 494.85300698 437.18663292 490.19140625 432.796875 C486.72903789 429.55421929 483.20694897 426.46555917 479.5 423.5 C474.4956568 419.49652544 469.85300698 415.18663292 465.19140625 410.796875 C461.72903789 407.55421929 458.20694897 404.46555917 454.5 401.5 C449.4956568 397.49652544 444.85300698 393.18663292 440.19140625 388.796875 C436.72903789 385.55421929 433.20694897 382.46555917 429.5 379.5 C424.4956568 375.49652544 419.85300698 371.18663292 415.19140625 366.796875 C411.72903789 363.55421929 408.20694897 360.46555917 404.5 357.5 C399.4956568 353.49652544 394.85300698 349.18663292 390.19140625 344.796875 C386.72903789 341.55421929 383.20694897 338.46555917 379.5 335.5 C374.4956568 331.49652544 369.85300698 327.18663292 365.19140625 322.796875 C361.72903789 319.55421929 358.20694897 316.46555917 354.5 313.5 C349.4956568 309.49652544 344.85300698 305.18663292 340.19140625 300.796875 C336.72903789 297.55421929 333.20694897 294.46555917 329.5 291.5 C324.4956568 287.49652544 319.85300698 283.18663292 315.19140625 278.796875 C311.72903789 275.55421929 308.20694897 272.46555917 304.5 269.5 C299.4956568 265.49652544 294.85300698 261.18663292 290.19140625 256.796875 C286.72903789 253.55421929 283.20694897 250.46555917 279.5 247.5 C274.4956568 243.49652544 269.85300698 239.18663292 265.19140625 234.796875 C261.72903789 231.55421929 258.20694897 228.46555917 254.5 225.5 C249.4956568 221.49652544 244.85300698 217.18663292 240.19140625 212.796875 C236.72903789 209.55421929 233.20694897 206.46555917 229.5 203.5 C224.4956568 199.49652544 219.85300698 195.18663292 215.19140625 190.796875 C211.72903789 187.55421929 208.20694897 184.46555917 204.5 181.5 C199.4956568 177.49652544 194.85300698 173.18663292 190.19140625 168.796875 C186.72903789 165.55421929 183.20694897 162.46555917 179.5 159.5 C174.4956568 155.49652544 169.85300698 151.18663292 165.19140625 146.796875 C161.72903789 143.55421929 158.20694897 140.46555917 154.5 137.5 C149.4956568 133.49652544 144.85300698 129.18663292 140.19140625 124.796875 C136.72903789 121.55421929 133.20694897 118.46555917 129.5 115.5 C124.4956568 111.49652544 119.85300698 107.18663292 115.19140625 102.796875 C111.72903789 99.55421929 108.20694897 96.46555917 104.5 93.5 C99.4956568 89.49652544 94.85300698 85.18663292 90.19140625 80.796875 C86.72903789 77.55421929 83.20694897 74.46555917 79.5 71.5 C74.4956568 67.49652544 69.85300698 63.18663292 65.19140625 58.796875 C61.72903789 55.55421929 58.20694897 52.46555917 54.5 49.5 C50.1429658 46.01437264 46.05878467 42.32206333 42 38.5 C37.09039702 33.87705042 32.05521457 29.53398821 26.7890625 25.31640625 C22.37749937 21.65246096 18.2202819 17.72224257 14.02734375 13.8125 C7.32575454 7.51870896 7.32575454 7.51870896 0 2 C0 1.34 0 0.68 0 0 Z " fill="#000000" transform="translate(10,0)"/>
<path d="M0 0 C7.80657974 4.32910331 13.84936489 10.29528723 17.203125 18.6796875 C20.81546499 34.20506364 15.27866247 49.45620049 7.203125 62.6796875 C2.04368934 69.33835796 -4.44972263 74.03462827 -12.796875 75.6796875 C-26.4818995 76.83911319 -38.01873719 73.22546019 -48.796875 64.6796875 C-55.50264006 57.97392244 -57.89773167 50.38203687 -58.296875 41.0546875 C-57.97728903 27.58849702 -52.1948216 13.26159531 -43.109375 3.3046875 C-30.22176747 -8.58027883 -15.01508528 -7.08812685 0 0 Z " fill="#FBFBFB" transform="translate(403.796875,70.3203125)"/>
<path d="M0 0 C0.886875 0.556875 1.77375 1.11375 2.6875 1.6875 C9.51557047 8.51557047 12.32876659 16.11392057 12.38720703 25.6081543 C12.13617395 37.5519698 8.0106 49.36511123 1 59 C0.60039062 59.58007812 0.20078125 60.16015625 -0.2109375 60.7578125 C-4.79430179 66.87921849 -11.55601167 70.65764145 -19 72 C-30.66595822 73.18909216 -41.4515539 70.67260486 -51 63.6875 C-58.11028138 57.60999692 -62.88327341 50.83251659 -63.75 41.375 C-64.71738077 26.70305827 -59.4720696 12.19610796 -50 1 C-35.57980596 -13.82860913 -16.20320909 -10.47238988 0 0 Z " fill="#FBFBFB" transform="translate(484,171)"/>
<path d="M0 0 C3.35511096 1.08376467 6.64648037 2.29864835 9.9375 3.5625 C11.24944336 4.0565332 11.24944336 4.0565332 12.58789062 4.56054688 C14.72774809 5.36737838 16.86491864 6.18063181 19 7 C14.95268449 11.32671599 10.51123355 14.70198762 5.6875 18.125 C4.89351807 18.693396 4.09953613 19.26179199 3.28149414 19.84741211 C-2.44471793 23.93251653 -8.2225994 27.93953639 -14.03076172 31.90698242 C-21.03289743 36.69122753 -27.95236131 41.5902966 -34.87207031 46.49267578 C-38.35014541 48.95637882 -41.8309485 51.41621278 -45.3125 53.875 C-46.00593506 54.36476318 -46.69937012 54.85452637 -47.41381836 55.35913086 C-53.78260439 59.85358891 -60.16971872 64.32169126 -66.55786133 68.78857422 C-72.56607879 72.9914921 -78.56059051 77.21332479 -84.54663086 81.44775391 C-88.43053202 84.1930417 -92.32231796 86.92654176 -96.22265625 89.6484375 C-97.11082031 90.26847656 -97.99898438 90.88851562 -98.9140625 91.52734375 C-100.62544909 92.72127569 -102.3376338 93.9140648 -104.05078125 95.10546875 C-104.8396875 95.65589844 -105.62859375 96.20632812 -106.44140625 96.7734375 C-107.20727051 97.30420898 -107.97313477 97.83498047 -108.76220703 98.38183594 C-110.26287763 99.46698155 -111.72846227 100.60223948 -113.15576172 101.78222656 C-118.25066259 105.97461594 -118.25066259 105.97461594 -121.8828125 106.09765625 C-122.91148437 105.73542969 -123.94015625 105.37320313 -125 105 C-125.74088867 104.74847168 -126.48177734 104.49694336 -127.24511719 104.23779297 C-129.80693207 103.34862179 -132.34039795 102.40133587 -134.875 101.4375 C-135.75414062 101.10814453 -136.63328125 100.77878906 -137.5390625 100.43945312 C-139.69458053 99.63113386 -141.84809441 98.81787706 -144 98 C-144 97.01 -144 96.02 -144 95 C-142.15844727 93.38110352 -142.15844727 93.38110352 -139.56640625 91.62890625 C-138.61588379 90.97825195 -137.66536133 90.32759766 -136.68603516 89.65722656 C-135.65526855 88.9659668 -134.62450195 88.27470703 -133.5625 87.5625 C-131.43584867 86.11118871 -129.30954903 84.65936195 -127.18359375 83.20703125 C-126.12897949 82.49111816 -125.07436523 81.77520508 -123.98779297 81.03759766 C-120.00175938 78.31922567 -116.05889361 75.54305506 -112.125 72.75 C-110.75918722 71.78375149 -109.39330239 70.8176048 -108.02734375 69.8515625 C-107.36331543 69.38137695 -106.69928711 68.91119141 -106.01513672 68.42675781 C-95.51457466 60.99214615 -84.9923241 53.58927316 -74.44873047 46.21582031 C-66.28153281 40.50209106 -58.13857528 34.75439256 -50 29 C-40.78276864 22.48294195 -31.55684294 15.9785654 -22.3125 9.5 C-21.47485107 8.91234863 -20.63720215 8.32469727 -19.77416992 7.71923828 C-18.21015266 6.62418863 -16.6419354 5.53510406 -15.06884766 4.453125 C-13.2893315 3.20322175 -11.56592177 1.87411498 -9.85546875 0.53125 C-5.98472766 -1.54444153 -4.22951429 -1.0981742 0 0 Z " fill="#FBFBFB" transform="translate(484,102)"/>
<path d="M0 0 C2.875 2.4375 2.875 2.4375 5 5 C5.33 5.33 5.66 5.66 6 6 C6.55269356 12.21161565 4.91488611 17.13526257 2.8125 22.9375 C2.52052734 23.79279297 2.22855469 24.64808594 1.92773438 25.52929688 C-0.43098887 32.17937466 -2.9694986 38.97966574 -9 43 C-13.21178243 43.46797583 -15.28599114 43.46565795 -18.875 41.125 C-21.73345564 38.26654436 -21.96669852 37.51984171 -22.23046875 33.40234375 C-22.1665883 28.76001535 -20.9376628 24.87630073 -19.3125 20.5625 C-19.04066895 19.82112793 -18.76883789 19.07975586 -18.48876953 18.31591797 C-11.02531581 -1.54741275 -11.02531581 -1.54741275 0 0 Z " fill="#050505" transform="translate(392,84)"/>
<path d="M0 0 C2.5 1.5 2.5 1.5 4 4 C5.966709 15.07686679 -0.04044932 27.4075032 -5 37 C-7.66484532 40.61657579 -10.07493302 41.83770755 -14.5625 42.625 C-18 42 -18 42 -20.9375 40.125 C-23.83972208 35.72769382 -23.49510044 32.14904453 -23 27 C-22.22697041 23.4929393 -21.10784667 20.18210824 -19.875 16.8125 C-19.59140625 15.96236328 -19.3078125 15.11222656 -19.015625 14.23632812 C-15.58675398 4.58331081 -11.07907515 -2.73692568 0 0 Z " fill="#030303" transform="translate(468,182)"/>
</svg>
