<?xml version="1.0" standalone="no"?>
<!DOCTYPE svg PUBLIC "-//W3C//DTD SVG 20010904//EN"
 "http://www.w3.org/TR/2001/REC-SVG-20010904/DTD/svg10.dtd">
<svg version="1.0" xmlns="http://www.w3.org/2000/svg"
 width="600.000000pt" height="445.000000pt" viewBox="0 0 600.000000 445.000000"
 preserveAspectRatio="xMidYMid meet">

<g transform="translate(0.000000,445.000000) scale(0.100000,-0.100000)"
fill="#000000" stroke="none">
<path d="M1540 4420 l-995 -5 -70 -23 c-131 -44 -264 -138 -338 -240 -19 -26
-55 -84 -80 -129 l-46 -83 480 0 479 0 0 -1387 -1 -1388 68 -39 c107 -60 638
-361 978 -554 171 -96 459 -260 641 -364 182 -103 337 -188 345 -188 7 0 153
79 324 177 314 178 749 425 905 513 47 27 233 132 414 235 180 102 343 194
362 202 l34 17 0 1388 0 1388 468 0 c258 0 471 3 475 6 8 9 -25 73 -89 170
-89 136 -217 237 -364 287 l-65 22 -1465 0 c-806 0 -1913 -2 -2460 -5z"/>
</g>
</svg>
