<?xml version="1.0" encoding="UTF-8"?>
<svg id="Layer_1" data-name="Layer 1" xmlns="http://www.w3.org/2000/svg" version="1.1" viewBox="0 0 20 19">
  <defs>
    <style>
      .cls-1 {
        fill: #1c7928;
        stroke-width: 0px;
      }

      .cls-2 {
        isolation: isolate;
      }
    </style>
  </defs>
  <g class="cls-2">
    <path class="cls-1" d="M2.2,13.7c-1.6-2.8-1.6-6.2,0-9C3.8,2,6.8.2,10,.2s6.2,1.7,7.8,4.5c1.6,2.8,1.6,6.2,0,9-1.6,2.8-4.6,4.5-7.8,4.5s-6.2-1.7-7.8-4.5ZM3.7,5.6c-1.3,2.3-1.3,5,0,7.3,1.3,2.3,3.7,3.7,6.3,3.7s5-1.4,6.3-3.7c1.3-2.3,1.3-5,0-7.3-1.3-2.3-3.7-3.7-6.3-3.7s-5,1.4-6.3,3.7ZM9.5,12.1l-.6.6-.6-.6-2.2-2.2-.6-.6,1.2-1.2.6.6,1.7,1.7,3.9-3.9.6-.6,1.2,1.2-.6.6-4.5,4.5Z"/>
  </g>
</svg>