<svg id="Layer_1" data-name="Layer 1" xmlns="http://www.w3.org/2000/svg" viewBox="0 0 473.76 337.19"><defs><style>.cls-1,.cls-2{fill:none;stroke-linecap:round;stroke-linejoin:round;stroke-width:8px;}.cls-1{stroke:#006eff;}.cls-2{stroke:#00439c;}</style></defs><path class="cls-1" d="M291.05,351.26a40.63,40.63,0,0,0-34.41-62.2V259.53a69.17,69.17,0,0,1,7.23.37l8.4-15.14,13.3,3.56-.29,17.36a69.92,69.92,0,0,1,12.44,7.22L312.63,264l9.74,9.74-8.94,14.91A70.49,70.49,0,0,1,320.64,301l17.36-.29,3.56,13.3-15.14,8.4a70.73,70.73,0,0,1,0,14.45l15.14,8.4L338,358.61l-17.36-.3a70.57,70.57,0,0,1-7.21,12.45l8.94,14.91-9.74,9.74-14.91-9a70.53,70.53,0,0,1-12.44,7.22l.29,17.35-13.3,3.57-8.4-15.15a68.88,68.88,0,0,1-14.45,0L241,414.6,227.72,411l.29-17.35a70.17,70.17,0,0,1-12.44-7.22l-14.92,9-9.73-9.74,9-14.91a70,70,0,0,1-7.22-12.45l-17.36.3-3.56-13.31,15.13-8.4a71.67,71.67,0,0,1-.36-7.22H216a40.63,40.63,0,0,0,58.09,36.67" transform="translate(-13.12 -81.4)"/><path class="cls-2" d="M201.26,314.91a40.62,40.62,0,0,1,40.62-40.61V244.76a72,72,0,0,0-7.23.37L226.25,230,213,233.56l.29,17.35a69.92,69.92,0,0,0-12.44,7.22l-14.91-8.95-9.74,9.74,8.95,14.91a70,70,0,0,0-7.22,12.45l-17.36-.3L157,299.28l15.14,8.41a68.84,68.84,0,0,0-.37,7.22Z" transform="translate(-13.12 -81.4)"/><path class="cls-1" d="M380.31,346.43h7.27c55.88,0,84.84-21.79,95.3-48.27" transform="translate(-13.12 -81.4)"/><path class="cls-1" d="M120.05,346.43h0c-162.94,0-105.81-168-11.15-145.17-11.46-49,40.26-84.24,81.28-64.16,25.62-79.48,179-66.12,179,31.89,27.48-14.1,57.17,5.2,53.46,36.72,26.41-4,48.51,13.65,58.76,37.69" transform="translate(-13.12 -81.4)"/></svg>