<?xml version="1.0" encoding="UTF-8"?>
<svg id="Layer_1" xmlns="http://www.w3.org/2000/svg" version="1.1" viewBox="0 0 14 17">
  <!-- Generator: Adobe Illustrator 29.1.0, SVG Export Plug-In . SVG Version: 2.1.0 Build 142)  -->
  <defs>
    <style>
      .st0 {
        isolation: isolate;
      }

      .st1 {
        fill: #006eff;
      }
    </style>
  </defs>
  <g class="st0">
    <path class="st1" d="M2,10.5h10l1.5,5,.5,1.5H0l.5-1.5,1.5-5ZM2,15.5h9.9l-1.1-3.5H3.1l-1.1,3.5ZM3,5c0-1.4.8-2.8,2-3.5,1.2-.7,2.8-.7,4,0,1.2.7,2,2,2,3.5s-.8,2.8-2,3.5c-1.2.7-2.8.7-4,0-1.2-.7-2-2-2-3.5ZM9.5,5c0-.9-.5-1.7-1.2-2.2s-1.7-.4-2.5,0-1.2,1.3-1.2,2.2.5,1.7,1.2,2.2,1.7.4,2.5,0,1.2-1.3,1.2-2.2Z"/>
  </g>
</svg>