<svg id="Layer_1" data-name="Layer 1" xmlns="http://www.w3.org/2000/svg" viewBox="0 0 360.34 360.34"><defs><style>.cls-1,.cls-2{fill:none;stroke-linecap:round;stroke-linejoin:round;stroke-width:8px;}.cls-1{stroke:#00439c;}.cls-2{stroke:#006eff;}</style></defs><path class="cls-1" d="M200.87,188a78.37,78.37,0,1,1-20,24.23" transform="translate(-69.83 -69.83)"/><polyline class="cls-1" points="138.68 174.28 166.68 213.05 218.3 151.37"/><line class="cls-2" x1="180.18" y1="4" x2="180.18" y2="25.56"/><line class="cls-2" x1="180.18" y1="50.15" x2="180.18" y2="71.71"/><line class="cls-2" x1="214.03" y1="37.85" x2="192.47" y2="37.85"/><line class="cls-2" x1="167.87" y1="37.85" x2="146.31" y2="37.85"/><line class="cls-2" x1="180.17" y1="356.34" x2="180.17" y2="334.78"/><line class="cls-2" x1="180.17" y1="310.19" x2="180.17" y2="288.63"/><line class="cls-2" x1="146.31" y1="322.49" x2="167.87" y2="322.49"/><line class="cls-2" x1="192.47" y1="322.49" x2="214.03" y2="322.49"/><line class="cls-2" x1="356.34" y1="180.18" x2="334.78" y2="180.18"/><line class="cls-2" x1="310.19" y1="180.18" x2="288.63" y2="180.18"/><line class="cls-2" x1="322.48" y1="214.03" x2="322.48" y2="192.47"/><line class="cls-2" x1="322.48" y1="167.87" x2="322.48" y2="146.31"/><line class="cls-2" x1="4" y1="180.17" x2="25.56" y2="180.17"/><line class="cls-2" x1="50.15" y1="180.17" x2="71.71" y2="180.17"/><line class="cls-2" x1="37.86" y1="146.31" x2="37.86" y2="167.87"/><line class="cls-2" x1="37.86" y1="192.47" x2="37.86" y2="214.03"/><line class="cls-2" x1="258.94" y1="98.34" x2="299.15" y2="58.13"/><line class="cls-2" x1="61.19" y1="296.09" x2="101.4" y2="255.88"/><line class="cls-2" x1="258.94" y1="255.88" x2="299.15" y2="296.09"/><line class="cls-2" x1="61.19" y1="58.13" x2="101.4" y2="98.34"/></svg>