<svg id="Layer_1" data-name="Layer 1" xmlns="http://www.w3.org/2000/svg" viewBox="0 0 360.34 360.34"><defs><style>.cls-1,.cls-2{fill:none;stroke-linecap:round;stroke-linejoin:round;stroke-width:8px;}.cls-1{stroke:#006eff;}.cls-2{stroke:#00439c;}</style></defs><path class="cls-1" d="M73.83,251.49V397.68a30.64,30.64,0,0,0,30.65,30.63H227" transform="translate(-69.83 -71.98)"/><path class="cls-1" d="M73.83,206.85V152.57L150.43,76H288.3a30.64,30.64,0,0,1,30.64,30.64v76.6" transform="translate(-69.83 -71.98)"/><polyline class="cls-1" points="80.6 4 80.6 80.59 4 80.59"/><line class="cls-1" x1="210.81" y1="34.64" x2="180.17" y2="34.64"/><line class="cls-1" x1="210.81" y1="65.28" x2="164.85" y2="65.28"/><ellipse class="cls-2" cx="233.79" cy="187.83" rx="61.28" ry="30.64"/><path class="cls-2" d="M364.89,259.81v46c0,16.92-27.43,30.63-61.27,30.63s-61.28-13.71-61.28-30.63v-46" transform="translate(-69.83 -71.98)"/><path class="cls-2" d="M364.89,305.77v46c0,16.92-27.43,30.64-61.27,30.64s-61.28-13.72-61.28-30.64v-46" transform="translate(-69.83 -71.98)"/><path class="cls-2" d="M364.89,351.72v46c0,16.92-27.43,30.64-61.27,30.64s-61.28-13.72-61.28-30.64v-46" transform="translate(-69.83 -71.98)"/><path class="cls-2" d="M303.62,229.17c0-16.92,27.43-30.64,61.27-30.64s61.28,13.72,61.28,30.64-27.43,30.64-61.28,30.64" transform="translate(-69.83 -71.98)"/><path class="cls-2" d="M426.17,229.17v46c0,16.92-27.43,30.64-61.28,30.64" transform="translate(-69.83 -71.98)"/><path class="cls-2" d="M426.17,275.13v45.95c0,16.93-27.43,30.64-61.28,30.64" transform="translate(-69.83 -71.98)"/><path class="cls-1" d="M104.47,367v15.32a15.32,15.32,0,0,0,15.32,15.32h15.32" transform="translate(-69.83 -71.98)"/><line class="cls-1" x1="80.6" y1="325.7" x2="95.92" y2="325.7"/></svg>