<svg xmlns="http://www.w3.org/2000/svg" width="82.401" height="19.066" viewBox="0 0 82.401 19.066">
  <path id="Revolut" d="M53.473,6.943a7.6,7.6,0,0,0-9.986,0,6.494,6.494,0,0,0-2.1,5.127,6.589,6.589,0,0,0,2.1,5.153,7.686,7.686,0,0,0,9.986,0,6.52,6.52,0,0,0,2.122-5.153,6.43,6.43,0,0,0-2.122-5.127Zm-7.626,7.93a3.761,3.761,0,0,1-1.1-2.8,3.651,3.651,0,0,1,1.1-2.777,3.582,3.582,0,0,1,2.619-1.068,3.645,3.645,0,0,1,2.646,1.068,3.588,3.588,0,0,1,1.128,2.777,3.674,3.674,0,0,1-1.128,2.8,3.728,3.728,0,0,1-2.646,1.041,3.668,3.668,0,0,1-2.619-1.041Zm14.7,3.818V.368h-3.3V18.691ZM71.208,5.447v7.311c0,1.762-.935,2.93-2.713,2.93-1.809,0-2.719-1.167-2.719-2.93V5.447H62.468v7.872c0,3.05,1.887,5.746,6.027,5.746h.026c4.114,0,6-2.756,6-5.746V5.447Zm-33.331,0-3.3,8.971-3.3-8.971H27.762l5.269,13.244h3.093L41.392,5.447ZM27.777,11.7A6.66,6.66,0,0,0,26,6.943a5.962,5.962,0,0,0-4.559-1.869,6.737,6.737,0,0,0-6.84,7,6.908,6.908,0,0,0,1.939,5.046,6.444,6.444,0,0,0,4.744,1.949,6.267,6.267,0,0,0,6.1-3.872l-2.462-1.442a3.829,3.829,0,0,1-3.59,2.43,3.445,3.445,0,0,1-3.564-3.31H27.777V11.695ZM21.33,7.636a3.228,3.228,0,0,1,3.407,2.777H17.767a3.8,3.8,0,0,1,3.564-2.777ZM14.6,18.691l-4.43-7.9c2.8-1.041,4.192-2.856,4.192-5.5C14.361,2.057,11.843,0,7.834,0H0V18.691H3.459V11.108H6.4l4.244,7.584ZM7.834,3.1c2.044,0,3.067.828,3.067,2.456S9.878,8.01,7.834,8.01H3.459V3.1ZM80.116,19.065a3.887,3.887,0,0,1-3.849-3.925V1.869h3.3V5.452H82.4V8.175H79.569v6.748a1.14,1.14,0,0,0,1.13,1.15h1.7v2.991Z"/>
</svg>
