<?xml version="1.0" encoding="UTF-8"?>
<svg id="Layer_1" xmlns="http://www.w3.org/2000/svg" version="1.1" viewBox="0 0 20 16">
  <!-- Generator: Adobe Illustrator 29.1.0, SVG Export Plug-In . SVG Version: 2.1.0 Build 142)  -->
  <defs>
    <style>
      .st0 {
        isolation: isolate;
      }

      .st1 {
        fill: #fff;
      }
    </style>
  </defs>
  <g class="st0">
    <path class="st1" d="M16.1,7c-.6,0-1.2-.2-1.6-.5-.1-.1-.3-.2-.4-.4-.1.1-.3.3-.4.4-.5.3-1,.5-1.6.5s-1.2-.2-1.6-.5c-.1-.1-.3-.2-.4-.4-.1.1-.3.3-.4.4-.5.3-1,.5-1.6.5s-1.2-.2-1.6-.5c-.1-.1-.3-.2-.4-.4-.1.1-.3.3-.4.4-.4.3-1,.5-1.6.5s-.3,0-.4,0c-1.7-.2-2.5-2.3-1.6-3.7L4,0h12l2.1,3.2c.9,1.5.1,3.5-1.6,3.7-.1,0-.2,0-.4,0ZM4.5,10.5h11v-2.5c.2,0,.4,0,.6,0s.3,0,.5,0h0c.1,0,.3,0,.4,0v8.1H3V7.9c.1,0,.2,0,.4,0h0c.2,0,.3,0,.5,0s.4,0,.6,0v2.5ZM3.9,5.5c.4,0,.7-.2.9-.4l1.1-1.2,1.1,1.2c.2.3.6.4.9.4s.7-.2.9-.4l1.1-1.2,1.1,1.2c.2.3.6.4.9.4s.7-.2.9-.4l1.1-1.2,1.1,1.2c.2.3.6.4.9.4s.1,0,.2,0c.3,0,.5-.2.6-.5.1-.3.1-.6,0-.9l-1.7-2.5H4.8l-1.7,2.6c-.2.3-.2.6,0,.9.1.3.3.5.6.5,0,0,.1,0,.2,0ZM15.5,12H4.5v2.5h11v-2.5Z"/>
  </g>
</svg>